<svg xmlns="http://www.w3.org/2000/svg" width="100%" height="100%" viewBox="0 0 1200 300"><defs><linearGradient id="bgGrad" x1="0%" x2="100%" y1="0%" y2="100%"><stop offset="0%" stop-color="#0b1d12"/><stop offset="50%" stop-color="#133320"/><stop offset="100%" stop-color="#07140b"/></linearGradient><linearGradient id="primaryGreen" x1="0%" x2="100%" y1="0%" y2="0%"><stop offset="0%" stop-color="#10b981"/><stop offset="100%" stop-color="#059669"/></linearGradient><linearGradient id="emeraldGlow" x1="0%" x2="100%" y1="0%" y2="100%"><stop offset="0%" stop-color="#34d399" stop-opacity=".8"/><stop offset="100%" stop-color="#059669" stop-opacity=".2"/></linearGradient><linearGradient id="goldHighlight" x1="0%" x2="100%" y1="0%" y2="0%"><stop offset="0%" stop-color="#fbbf24"/><stop offset="100%" stop-color="#d97706"/></linearGradient><filter id="shadow" width="120%" height="120%" x="-10%" y="-10%"><feDropShadow dx="0" dy="4" flood-color="#000" flood-opacity=".6" stdDeviation="6"/></filter><filter id="glow" width="140%" height="140%" x="-20%" y="-20%"><feGaussianBlur result="blur" stdDeviation="8"/><feComposite in="SourceGraphic" in2="blur" operator="over"/></filter></defs><style>@keyframes floatWave1{0%{transform:translateY(0) scale(1)}50%{transform:translateY(-12px) scale(1.02)}}@keyframes floatWave2{0%{transform:translateY(0)}50%{transform:translateY(15px)}}@keyframes pulseGlow{0%{opacity:.3;transform:scale(.98)}50%{opacity:.7;transform:scale(1.02)}}@keyframes dashCycle{0%{stroke-dashoffset:1000}}.pill-text,.subtitle,.title{font-family:&apos;Segoe UI&apos;,Roboto,Helvetica,Arial,sans-serif}.title{font-weight:800;font-size:42px;fill:#fff}.subtitle{font-weight:500;font-size:20px;fill:#a7f3d0}.pill-text{font-weight:600;font-size:13px;fill:#fff}.animated-wave-1{animation:floatWave1 8s ease-in-out infinite;transform-origin:center}.animated-wave-2,.pulsing-orb{animation:floatWave2 11s ease-in-out infinite;transform-origin:center}.pulsing-orb{animation:pulseGlow 6s ease-in-out infinite}</style><rect width="1200" height="300" fill="url(#bgGrad)" rx="16"/><circle cx="150" cy="60" r="180" fill="url(#emeraldGlow)" class="pulsing-orb" filter="url(#glow)"/><circle cx="1050" cy="240" r="200" fill="url(#emeraldGlow)" class="pulsing-orb" filter="url(#glow)"/><g opacity=".25"><path fill="none" stroke="#10b981" stroke-width="4" d="M -50 220 Q 200 120, 450 240 T 950 180 T 1250 260" class="animated-wave-1"/><path fill="none" stroke="#34d399" stroke-dasharray="8 6" stroke-width="2" d="M -50 100 Q 350 280, 650 140 T 1250 200" class="animated-wave-2"/><path fill="none" stroke="#059669" stroke-width="1.5" d="M 0 270 Q 400 180, 800 280 T 1200 210"/></g><g opacity=".15" transform="translate(860, 40)"><pattern id="grid" width="30" height="30" patternUnits="userSpaceOnUse"><path fill="none" stroke="#a7f3d0" stroke-width="1" d="M 30 0 L 0 0 0 30"/></pattern><rect width="300" height="220" fill="url(#grid)"/></g><g class="animated-wave-1" filter="url(#shadow)" transform="translate(820, 175)"><rect width="150" height="75" x="0" y="0" fill="#133e29" stroke="#10b981" stroke-width="1.5" opacity=".95" rx="12"/><text x="16" y="28" fill="#a7f3d0" font-family="Segoe UI, sans-serif" font-size="11" font-weight="600">TNFD &amp; CSRD</text><text x="16" y="52" fill="#fff" font-family="Segoe UI, sans-serif" font-size="18" font-weight="700">Aligned ✔</text></g><g class="animated-wave-2" filter="url(#shadow)" transform="translate(990, 175)"><rect width="160" height="75" x="0" y="0" fill="#133e29" stroke="#34d399" stroke-width="1.5" opacity=".95" rx="12"/><text x="16" y="28" fill="#a7f3d0" font-family="Segoe UI, sans-serif" font-size="11" font-weight="600">Ecosystem Data</text><text x="16" y="52" fill="#34d399" font-family="Segoe UI, sans-serif" font-size="18" font-weight="700">eDNA + AI</text></g><g><g transform="translate(70, 75) translate(0, 0)"><rect width="225" height="30" x="0" y="0" fill="#064e3b" stroke="#10b981" stroke-width="1" rx="15"/><text x="15" y="19" class="pill-text">🌿 NATURE INTELLIGENCE 2026</text></g><text x="0" y="75" class="title" filter="url(#shadow)" transform="translate(70, 75)">Awesome Biodiversity &amp; Nature Reporting</text><text x="0" y="115" class="subtitle" transform="translate(70, 75)">Curated SaaS Platforms, Geospatial AI &amp; Open-Source Monitoring Tools</text><g transform="translate(70, 75) translate(0, 142)"><rect width="130" height="26" x="0" y="0" fill="#10b981" opacity=".2" rx="6"/><rect width="130" height="26" x="0" y="0" fill="none" stroke="#10b981" stroke-width="1" rx="6"/><text x="12" y="17" fill="#a7f3d0" font-family="Segoe UI, sans-serif" font-size="12" font-weight="600">🌱 Natural Capital</text><rect width="145" height="26" x="142" y="0" fill="#10b981" opacity=".2" rx="6"/><rect width="145" height="26" x="142" y="0" fill="none" stroke="#10b981" stroke-width="1" rx="6"/><text x="154" y="17" fill="#a7f3d0" font-family="Segoe UI, sans-serif" font-size="12" font-weight="600">📡 Remote Sensing</text><rect width="135" height="26" x="299" y="0" fill="#10b981" opacity=".2" rx="6"/><rect width="135" height="26" x="299" y="0" fill="none" stroke="#10b981" stroke-width="1" rx="6"/><text x="311" y="17" fill="#a7f3d0" font-family="Segoe UI, sans-serif" font-size="12" font-weight="600">🧬 eDNA Analytics</text></g></g></svg>